{"accessors" : [{"bufferView" : 0, "byteOffset" : 0, "componentType" : 5123, "count" : 3282, "type" : "SCALAR", "max" : [3130], "min" : [0]}, {"bufferView" : 1, "byteOffset" : 0, "componentType" : 5126, "count" : 3131, "type" : "VEC3", "max" : [78.16987609863281, 66.76380157470703, 50], "min" : [1.8301270008087158, 0, -5], "name" : "POSITION"}, {"bufferView" : 1, "byteOffset" : 12, "componentType" : 5126, "count" : 3131, "type" : "VEC3", "max" : [0.9988975524902344, 1.0000044107437134, 1.0000044107437134], "min" : [-0.9988975524902344, -1.0000044107437134, -1.0000044107437134], "name" : "NORMAL"}], "asset" : {"generator" : "Aspose.3D 24.1.0", "version" : "2.0"}, "buffers" : [{"uri" : "data:application/octet-stream;base64,", "byteLength" : 85340}], "bufferViews" : [{"buffer" : 0, "byteOffset" : 0, "byteLength" : 6564, "target" : 34963}, {"buffer" : 0, "byteOffset" : 6568, "byteLength" : 78768, "byteStride" : 24, "target" : 34962}], "meshes" : [{"primitives" : [{"attributes" : {"POSITION" : 1, "NORMAL" : 2}, "indices" : 0, "mode" : 4}], "name" : ""}], "nodes" : [{"mesh" : 0, "name" : ""}], "scene" : 0, "scenes" : [{"nodes" : [0]}]}