{"accessors" : [{"bufferView" : 0, "byteOffset" : 0, "componentType" : 5123, "count" : 46830, "type" : "SCALAR", "max" : [45982], "min" : [0]}, {"bufferView" : 1, "byteOffset" : 0, "componentType" : 5126, "count" : 45983, "type" : "VEC3", "max" : [58.47843551635742, 74.9946060180664, 30], "min" : [-91.5, -74.9946060180664, -7.5], "name" : "POSITION"}, {"bufferView" : 1, "byteOffset" : 12, "componentType" : 5126, "count" : 45983, "type" : "VEC3", "max" : [1.0000044107437134, 0.9999325275421143, 1.0000044107437134], "min" : [-1.0000015497207642, -0.9999325275421143, -1.0000044107437134], "name" : "NORMAL"}], "asset" : {"generator" : "Aspose.3D 24.1.0", "version" : "2.0"}, "buffers" : [{"uri" : "data:application/octet-stream;base64,", "byteLength" : 1217588}], "bufferViews" : [{"buffer" : 0, "byteOffset" : 0, "byteLength" : 93660, "target" : 34963}, {"buffer" : 0, "byteOffset" : 93664, "byteLength" : 1123920, "byteStride" : 24, "target" : 34962}], "meshes" : [{"primitives" : [{"attributes" : {"POSITION" : 1, "NORMAL" : 2}, "indices" : 0, "mode" : 4}], "name" : ""}], "nodes" : [{"mesh" : 0, "name" : ""}], "scene" : 0, "scenes" : [{"nodes" : [0]}]}